<mxfile host="app.diagrams.net" modified="2022-12-28T10:39:59.722Z" agent="5.0 (Macintosh; Intel Mac OS X 10_15_7) AppleWebKit/537.36 (KHTML, like Gecko) Chrome/97.0.4692.71 Safari/537.36" version="20.7.4" etag="QCFgDfxawyCUIMoKSTRe" type="github">
  <diagram id="bbIxcuTp82u67kuk2poI" name="第 1 页">
    <mxGraphModel dx="1194" dy="701" grid="0" gridSize="10" guides="1" tooltips="1" connect="1" arrows="1" fold="1" page="1" pageScale="1" pageWidth="1169" pageHeight="827" math="0" shadow="0">
      <root>
        <mxCell id="0" />
        <mxCell id="1" parent="0" />
        <mxCell id="dKxH37pts05nzzjF8oYx-9" style="edgeStyle=orthogonalEdgeStyle;rounded=0;orthogonalLoop=1;jettySize=auto;html=1;exitX=1;exitY=0.5;exitDx=0;exitDy=0;" edge="1" parent="1" source="dKxH37pts05nzzjF8oYx-1" target="dKxH37pts05nzzjF8oYx-2">
          <mxGeometry relative="1" as="geometry" />
        </mxCell>
        <mxCell id="dKxH37pts05nzzjF8oYx-10" value="http" style="edgeLabel;html=1;align=center;verticalAlign=middle;resizable=0;points=[];" vertex="1" connectable="0" parent="dKxH37pts05nzzjF8oYx-9">
          <mxGeometry x="-0.0417" y="2" relative="1" as="geometry">
            <mxPoint as="offset" />
          </mxGeometry>
        </mxCell>
        <mxCell id="dKxH37pts05nzzjF8oYx-1" value="调用/调试" style="rounded=1;whiteSpace=wrap;html=1;" vertex="1" parent="1">
          <mxGeometry x="66" y="80" width="120" height="60" as="geometry" />
        </mxCell>
        <mxCell id="dKxH37pts05nzzjF8oYx-11" style="edgeStyle=orthogonalEdgeStyle;rounded=0;orthogonalLoop=1;jettySize=auto;html=1;exitX=1;exitY=0.5;exitDx=0;exitDy=0;entryX=0;entryY=0.25;entryDx=0;entryDy=0;" edge="1" parent="1" source="dKxH37pts05nzzjF8oYx-2" target="dKxH37pts05nzzjF8oYx-8">
          <mxGeometry relative="1" as="geometry" />
        </mxCell>
        <mxCell id="dKxH37pts05nzzjF8oYx-12" value="RPC" style="edgeLabel;html=1;align=center;verticalAlign=middle;resizable=0;points=[];" vertex="1" connectable="0" parent="dKxH37pts05nzzjF8oYx-11">
          <mxGeometry x="-0.0427" y="2" relative="1" as="geometry">
            <mxPoint as="offset" />
          </mxGeometry>
        </mxCell>
        <mxCell id="dKxH37pts05nzzjF8oYx-2" value="&lt;b&gt;api server&lt;/b&gt;" style="rounded=0;whiteSpace=wrap;html=1;" vertex="1" parent="1">
          <mxGeometry x="282" y="80" width="120" height="60" as="geometry" />
        </mxCell>
        <mxCell id="dKxH37pts05nzzjF8oYx-8" value="Judge Server" style="swimlane;whiteSpace=wrap;html=1;" vertex="1" parent="1">
          <mxGeometry x="594" y="32" width="466" height="311" as="geometry" />
        </mxCell>
        <mxCell id="dKxH37pts05nzzjF8oYx-23" style="edgeStyle=orthogonalEdgeStyle;rounded=0;orthogonalLoop=1;jettySize=auto;html=1;exitX=0.25;exitY=1;exitDx=0;exitDy=0;" edge="1" parent="dKxH37pts05nzzjF8oYx-8" source="dKxH37pts05nzzjF8oYx-13" target="dKxH37pts05nzzjF8oYx-15">
          <mxGeometry relative="1" as="geometry" />
        </mxCell>
        <mxCell id="dKxH37pts05nzzjF8oYx-13" value="java server" style="rounded=0;whiteSpace=wrap;html=1;" vertex="1" parent="dKxH37pts05nzzjF8oYx-8">
          <mxGeometry x="16" y="55" width="432" height="46" as="geometry" />
        </mxCell>
        <mxCell id="dKxH37pts05nzzjF8oYx-25" style="edgeStyle=orthogonalEdgeStyle;rounded=0;orthogonalLoop=1;jettySize=auto;html=1;exitX=0.75;exitY=0;exitDx=0;exitDy=0;entryX=0.5;entryY=1;entryDx=0;entryDy=0;entryPerimeter=0;" edge="1" parent="dKxH37pts05nzzjF8oYx-8" source="dKxH37pts05nzzjF8oYx-14" target="dKxH37pts05nzzjF8oYx-20">
          <mxGeometry relative="1" as="geometry">
            <Array as="points">
              <mxPoint x="329" y="232" />
              <mxPoint x="283" y="232" />
            </Array>
          </mxGeometry>
        </mxCell>
        <mxCell id="dKxH37pts05nzzjF8oYx-26" style="edgeStyle=orthogonalEdgeStyle;rounded=0;orthogonalLoop=1;jettySize=auto;html=1;exitX=0.75;exitY=0;exitDx=0;exitDy=0;" edge="1" parent="dKxH37pts05nzzjF8oYx-8" source="dKxH37pts05nzzjF8oYx-14" target="dKxH37pts05nzzjF8oYx-21">
          <mxGeometry relative="1" as="geometry">
            <Array as="points">
              <mxPoint x="329" y="233" />
              <mxPoint x="371" y="233" />
            </Array>
          </mxGeometry>
        </mxCell>
        <mxCell id="dKxH37pts05nzzjF8oYx-14" value="bash&amp;nbsp; /&amp;nbsp; &amp;nbsp;isolate" style="rounded=0;whiteSpace=wrap;html=1;" vertex="1" parent="dKxH37pts05nzzjF8oYx-8">
          <mxGeometry x="41.5" y="246" width="383" height="54" as="geometry" />
        </mxCell>
        <mxCell id="dKxH37pts05nzzjF8oYx-24" style="edgeStyle=orthogonalEdgeStyle;rounded=0;orthogonalLoop=1;jettySize=auto;html=1;exitX=0.5;exitY=1;exitDx=0;exitDy=0;exitPerimeter=0;entryX=0.218;entryY=0;entryDx=0;entryDy=0;entryPerimeter=0;" edge="1" parent="dKxH37pts05nzzjF8oYx-8" source="dKxH37pts05nzzjF8oYx-15" target="dKxH37pts05nzzjF8oYx-14">
          <mxGeometry relative="1" as="geometry" />
        </mxCell>
        <mxCell id="dKxH37pts05nzzjF8oYx-15" value="in&lt;br&gt;file" style="shape=note;whiteSpace=wrap;html=1;backgroundOutline=1;darkOpacity=0.05;" vertex="1" parent="dKxH37pts05nzzjF8oYx-8">
          <mxGeometry x="89" y="126" width="70" height="86" as="geometry" />
        </mxCell>
        <mxCell id="dKxH37pts05nzzjF8oYx-27" style="edgeStyle=orthogonalEdgeStyle;rounded=0;orthogonalLoop=1;jettySize=auto;html=1;exitX=0;exitY=0;exitDx=20;exitDy=0;exitPerimeter=0;entryX=0.75;entryY=1;entryDx=0;entryDy=0;" edge="1" parent="dKxH37pts05nzzjF8oYx-8" source="dKxH37pts05nzzjF8oYx-20" target="dKxH37pts05nzzjF8oYx-13">
          <mxGeometry relative="1" as="geometry">
            <Array as="points">
              <mxPoint x="268" y="120" />
              <mxPoint x="340" y="120" />
            </Array>
          </mxGeometry>
        </mxCell>
        <mxCell id="dKxH37pts05nzzjF8oYx-20" value="result&lt;br&gt;file" style="shape=note;whiteSpace=wrap;html=1;backgroundOutline=1;darkOpacity=0.05;" vertex="1" parent="dKxH37pts05nzzjF8oYx-8">
          <mxGeometry x="248" y="131" width="70" height="86" as="geometry" />
        </mxCell>
        <mxCell id="dKxH37pts05nzzjF8oYx-29" style="edgeStyle=orthogonalEdgeStyle;rounded=0;orthogonalLoop=1;jettySize=auto;html=1;exitX=0;exitY=0;exitDx=55;exitDy=15;exitPerimeter=0;entryX=0.75;entryY=1;entryDx=0;entryDy=0;" edge="1" parent="dKxH37pts05nzzjF8oYx-8" source="dKxH37pts05nzzjF8oYx-21" target="dKxH37pts05nzzjF8oYx-13">
          <mxGeometry relative="1" as="geometry">
            <Array as="points">
              <mxPoint x="391" y="119" />
              <mxPoint x="340" y="119" />
            </Array>
          </mxGeometry>
        </mxCell>
        <mxCell id="dKxH37pts05nzzjF8oYx-21" value="error&lt;br&gt;file" style="shape=note;whiteSpace=wrap;html=1;backgroundOutline=1;darkOpacity=0.05;" vertex="1" parent="dKxH37pts05nzzjF8oYx-8">
          <mxGeometry x="336" y="131" width="70" height="86" as="geometry" />
        </mxCell>
        <mxCell id="dKxH37pts05nzzjF8oYx-30" value="&lt;span style=&quot;color: rgb(23, 43, 77); font-family: -apple-system, &amp;quot;system-ui&amp;quot;, &amp;quot;Segoe UI&amp;quot;, Roboto, Oxygen, Ubuntu, &amp;quot;Fira Sans&amp;quot;, &amp;quot;Droid Sans&amp;quot;, &amp;quot;Helvetica Neue&amp;quot;, sans-serif; text-align: left; background-color: rgb(255, 255, 255);&quot;&gt;&lt;font style=&quot;font-size: 11px;&quot;&gt;Process&lt;/font&gt;&lt;/span&gt;" style="text;html=1;align=center;verticalAlign=middle;resizable=0;points=[];autosize=1;strokeColor=none;fillColor=none;" vertex="1" parent="dKxH37pts05nzzjF8oYx-8">
          <mxGeometry x="89" y="78" width="64" height="26" as="geometry" />
        </mxCell>
      </root>
    </mxGraphModel>
  </diagram>
</mxfile>
